<svg width="73" height="64" viewBox="0 0 73 64" fill="none" xmlns="http://www.w3.org/2000/svg">
<g clip-path="url(#clip0_95_19)" filter="url(#filter0_d_95_19)">
<path d="M48.4848 6.5625C40.7101 6.5625 34.3879 12.3984 34.3879 19.575C34.3879 20.0063 34.5047 20.4281 34.5504 20.85C24.9375 20.0016 16.4367 15.7266 10.6629 9.1875C10.3937 8.87344 9.97732 8.70469 9.5406 8.73281C9.10896 8.76094 8.72302 8.99062 8.50974 9.3375C7.29607 11.2641 6.60037 13.4813 6.60037 15.8625C6.60037 18.7453 7.71756 21.3844 9.44412 23.55C9.10896 23.4141 8.74334 23.3391 8.42849 23.175C8.02732 22.9781 7.54489 22.9875 7.15388 23.2031C6.76287 23.4188 6.52419 23.8078 6.51912 24.225V24.375C6.51912 28.7953 8.99724 32.6344 12.6535 34.9875C12.6129 34.9828 12.5722 34.9969 12.5316 34.9875C12.0847 34.9172 11.6328 35.0625 11.3332 35.3766C11.0336 35.6906 10.9371 36.1266 11.0691 36.525C12.5215 40.6922 16.2285 43.875 20.8191 45.0375C17.1629 47.0438 12.9226 48.225 8.34725 48.225C7.35702 48.225 6.40741 48.1781 5.46288 48.075C4.8535 48 4.26952 48.3281 4.06639 48.8625C3.85818 49.3969 4.08671 49.9922 4.60975 50.2875C10.475 53.7609 17.4371 55.8 24.9223 55.8C37.0539 55.8 46.5703 51.1219 52.9535 44.4375C59.3367 37.7531 62.6629 29.0719 62.6629 20.9625C62.6629 20.6203 62.6324 20.2875 62.6223 19.95C65.0039 18.2672 67.1316 16.2938 68.7973 13.9875C69.1274 13.5422 69.0918 12.9469 68.7109 12.5344C68.3352 12.1219 67.7004 11.9953 67.1723 12.225C66.502 12.5016 65.7199 12.5297 65.0191 12.75C65.9434 11.6109 66.7356 10.3828 67.2129 9C67.3754 8.52656 67.1977 8.00626 66.7762 7.69687C66.3547 7.39218 65.7656 7.35468 65.3035 7.6125C63.0844 8.82656 60.6266 9.67969 58.0316 10.2C55.5129 8.025 52.1969 6.5625 48.4848 6.5625ZM48.4848 8.9625C51.8008 8.9625 54.7969 10.2703 56.8941 12.3375C57.209 12.6375 57.6711 12.7641 58.1129 12.675C59.809 12.3656 61.4187 11.9109 62.9879 11.325C62.084 12.45 60.9668 13.4109 59.6566 14.1375C59.0625 14.4047 58.7832 15.0375 59.0015 15.6141C59.2148 16.1859 59.8648 16.5188 60.5098 16.3875C61.8098 16.2422 62.9676 15.7547 64.2066 15.45C63.0945 16.5609 61.8758 17.5641 60.5504 18.45C60.1898 18.6938 59.9918 19.0875 60.0223 19.5C60.0426 19.9875 60.0629 20.4703 60.0629 20.9625C60.0629 28.4625 56.9449 36.6047 51.0035 42.825C45.0621 49.0453 36.3379 53.4 24.9222 53.4C19.7375 53.4 14.8422 52.3406 10.4191 50.475C15.9035 50.0859 20.9613 48.2953 25.0441 45.3375C25.4707 45.0234 25.6383 44.4984 25.4656 44.0203C25.293 43.5422 24.8156 43.2141 24.2722 43.2C19.9863 43.1297 16.3961 40.8281 14.4816 37.575C14.5527 37.575 14.6136 37.575 14.6847 37.575C15.9695 37.575 17.239 37.425 18.4222 37.125C18.991 36.9703 19.382 36.4828 19.3617 35.9344C19.3414 35.3859 18.9199 34.9172 18.341 34.8C13.7148 33.9375 10.2465 30.4594 9.44412 26.1375C10.7543 26.5547 12.0949 26.8828 13.5472 26.925C14.1414 26.9578 14.6797 26.6156 14.8625 26.0953C15.0453 25.575 14.8219 25.0031 14.3191 24.7125C11.2316 22.8047 9.20037 19.5563 9.20037 15.8625C9.20037 14.4938 9.58631 13.2375 10.0941 12.0375C16.5941 18.6234 25.6941 22.9969 35.9722 23.475C36.3785 23.4938 36.7746 23.3391 37.0387 23.0531C37.3027 22.7625 37.4043 22.3781 37.3129 22.0125C37.1148 21.2344 36.9879 20.4094 36.9879 19.575C36.9879 13.6969 42.1168 8.9625 48.4848 8.9625Z" fill="white"/>
</g>
<defs>
<filter id="filter0_d_95_19" x="0" y="0" width="73" height="68" filterUnits="userSpaceOnUse" color-interpolation-filters="sRGB">
<feFlood flood-opacity="0" result="BackgroundImageFix"/>
<feColorMatrix in="SourceAlpha" type="matrix" values="0 0 0 0 0 0 0 0 0 0 0 0 0 0 0 0 0 0 127 0" result="hardAlpha"/>
<feOffset dy="4"/>
<feGaussianBlur stdDeviation="2"/>
<feComposite in2="hardAlpha" operator="out"/>
<feColorMatrix type="matrix" values="0 0 0 0 0 0 0 0 0 0 0 0 0 0 0 0 0 0 0.25 0"/>
<feBlend mode="normal" in2="BackgroundImageFix" result="effect1_dropShadow_95_19"/>
<feBlend mode="normal" in="SourceGraphic" in2="effect1_dropShadow_95_19" result="shape"/>
</filter>
<clipPath id="clip0_95_19">
<rect width="65" height="60" fill="white" transform="translate(4)"/>
</clipPath>
</defs>
</svg>
