<svg width="65" height="60" viewBox="0 0 65 60" fill="none" xmlns="http://www.w3.org/2000/svg">
<path d="M32.5 5C17.5744 5 5.41667 16.2225 5.41667 30C5.41667 43.7775 17.5744 55 32.5 55C47.4256 55 59.5834 43.7775 59.5834 30C59.5834 16.2225 47.4256 5 32.5 5ZM32.5 10C44.4983 10 54.1667 18.9247 54.1667 30C54.1667 40.0362 46.2186 48.2826 35.8008 49.7461V35.9619H42.1062L43.0953 30.0488H35.8008V26.8164C35.8008 24.3589 36.6681 22.1777 39.1598 22.1777H43.1588V17.0166C42.4546 16.9291 40.9685 16.7383 38.16 16.7383C32.2937 16.7383 28.8554 19.5983 28.8554 26.1133V30.0488H22.8251V35.9619H28.8554V49.6973C18.607 48.1021 10.8333 39.9256 10.8333 30C10.8333 18.9247 20.5018 10 32.5 10Z" fill="white"/>
</svg>
