<svg width="55" height="42" viewBox="0 0 55 42" fill="none" xmlns="http://www.w3.org/2000/svg">
<g clip-path="url(#clip0_95_27)">
<path d="M27.5 0C27.5 0 10.3003 -7.83341e-05 6.01026 1.09717C3.64251 1.70092 1.78192 3.47957 1.14942 5.73707C-8.26618e-05 9.83207 0 21 0 21C0 21 -8.26618e-05 32.1679 1.14942 36.2629C1.78192 38.5231 3.64526 40.2991 6.01026 40.9028C10.3003 42.0001 27.5 42 27.5 42C27.5 42 44.6997 42.0001 48.9897 40.9028C51.3547 40.2991 53.2181 38.5204 53.8506 36.2629C55.0001 32.1679 55 21 55 21C55 21 55.0001 9.83207 53.8506 5.73707C53.2181 3.47957 51.3547 1.70092 48.9897 1.09717C44.6997 -7.83341e-05 27.5 0 27.5 0ZM27.5 5.25C35.4255 5.25 45.3499 5.60073 47.5664 6.16773C48.0312 6.28585 48.4121 6.64947 48.5386 7.09572C49.2013 9.45297 49.5 16.6478 49.5 21C49.5 25.3523 49.2013 32.5444 48.5386 34.9043C48.4148 35.348 48.0339 35.7116 47.5664 35.8323C45.3527 36.3993 35.4255 36.7501 27.5 36.7501C19.5773 36.7501 9.65288 36.3993 7.43363 35.8323C6.96888 35.7142 6.58795 35.3506 6.46145 34.9043C5.7987 32.5471 5.50003 25.3523 5.50003 21.0001C5.50003 16.6478 5.7987 9.45312 6.46145 7.09062C6.5852 6.64962 6.96613 6.2859 7.43363 6.16778C9.64738 5.60078 19.5745 5.25 27.5 5.25ZM22 11.9048V30.0952L38.5 21L22 11.9048Z" fill="white"/>
</g>
<defs>
<clipPath id="clip0_95_27">
<rect width="55" height="42" fill="white"/>
</clipPath>
</defs>
</svg>
