<svg width="33" height="33" viewBox="0 0 33 33" fill="none" xmlns="http://www.w3.org/2000/svg">
<path d="M16.4999 32.5312C14.4056 32.5347 12.3314 32.1246 10.3961 31.3243C8.46082 30.5241 6.70265 29.3495 5.22251 27.8679C-0.996044 21.6494 -0.996044 11.5318 5.22251 5.31326C8.23482 2.30095 12.2397 0.641052 16.4999 0.641052C20.76 0.641052 24.7649 2.29967 27.7772 5.31326C33.9957 11.5318 33.9957 21.6494 27.7772 27.8679C26.2971 29.3495 24.5389 30.5241 22.6036 31.3243C20.6683 32.1246 18.5941 32.5347 16.4999 32.5312ZM16.4999 3.19278C12.9211 3.19278 9.55789 4.58602 7.02658 7.11733C4.49527 9.64864 3.1033 13.0118 3.1033 16.5906C3.1033 20.1694 4.49654 23.5326 7.02658 26.0639C12.2512 31.286 20.751 31.286 25.9731 26.0639C28.5032 23.5326 29.8964 20.1681 29.8964 16.5906C29.8964 13.0131 28.5032 9.64864 25.9731 7.11733C23.4431 4.58602 20.0786 3.19278 16.4999 3.19278Z" fill="white"/>
</svg>
