<svg width="33" height="33" viewBox="0 0 33 33" fill="none" xmlns="http://www.w3.org/2000/svg">
<path d="M16.4999 32.5312C18.5941 32.5347 20.6684 32.1246 22.6037 31.3243C24.5389 30.5241 26.2971 29.3495 27.7772 27.8679C33.9958 21.6494 33.9958 11.5318 27.7772 5.31326C24.7649 2.30095 20.76 0.641052 16.4999 0.641052C12.2398 0.641052 8.23487 2.29967 5.22256 5.31326C-0.995993 11.5318 -0.995993 21.6494 5.22256 27.8679C6.7027 29.3495 8.46087 30.5241 10.3961 31.3243C12.3314 32.1246 14.4057 32.5347 16.4999 32.5312ZM16.4999 3.19278C20.0787 3.19278 23.4419 4.58602 25.9732 7.11733C28.5045 9.64864 29.8965 13.0118 29.8965 16.5906C29.8965 20.1694 28.5032 23.5326 25.9732 26.0639C20.7485 31.286 12.2487 31.286 7.02663 26.0639C4.49659 23.5326 3.10335 20.1681 3.10335 16.5906C3.10335 13.0131 4.49659 9.64864 7.02663 7.11733C9.55666 4.58602 12.9211 3.19278 16.4999 3.19278Z" fill="white"/>
</svg>
