<svg width="9" height="15" viewBox="0 0 9 15" fill="none" xmlns="http://www.w3.org/2000/svg">
<path d="M1.56793 14.7303C1.31535 14.7309 1.06831 14.6564 0.858146 14.5163C0.647984 14.3762 0.484184 14.1768 0.387535 13.9434C0.290886 13.7101 0.265746 13.4533 0.315306 13.2056C0.364866 12.958 0.486892 12.7306 0.665895 12.5524L5.62772 7.59058L0.665895 2.62875C0.547438 2.5103 0.453473 2.36967 0.389365 2.2149C0.325257 2.06013 0.29226 1.89424 0.29226 1.72672C0.29226 1.5592 0.325257 1.39331 0.389365 1.23854C0.453473 1.08377 0.547438 0.943141 0.665895 0.824684C0.784352 0.706227 0.92498 0.612263 1.07975 0.548154C1.23452 0.484046 1.40041 0.45105 1.56793 0.45105C1.73545 0.45105 1.90134 0.484046 2.05611 0.548154C2.21088 0.612263 2.35151 0.706227 2.46996 0.824684L8.33383 6.68855C8.45241 6.80693 8.54649 6.94754 8.61068 7.10232C8.67487 7.2571 8.70791 7.42302 8.70791 7.59058C8.70791 7.75814 8.67487 7.92406 8.61068 8.07885C8.54649 8.23363 8.45241 8.37423 8.33383 8.49262L2.46996 14.3565C2.35164 14.4751 2.21104 14.5692 2.05624 14.6334C1.90144 14.6975 1.7355 14.7305 1.56793 14.7303Z" fill="white"/>
</svg>
