<svg width="9" height="15" viewBox="0 0 9 15" fill="none" xmlns="http://www.w3.org/2000/svg">
<path d="M7.43183 14.7303C7.6844 14.7309 7.93145 14.6564 8.14161 14.5163C8.35177 14.3762 8.51557 14.1768 8.61222 13.9434C8.70887 13.7101 8.73401 13.4533 8.68445 13.2056C8.63489 12.958 8.51286 12.7306 8.33386 12.5524L3.37203 7.59058L8.33386 2.62875C8.45232 2.5103 8.54628 2.36967 8.61039 2.2149C8.6745 2.06013 8.7075 1.89424 8.7075 1.72672C8.7075 1.5592 8.6745 1.39331 8.61039 1.23854C8.54628 1.08377 8.45232 0.943141 8.33386 0.824684C8.2154 0.706227 8.07478 0.612263 7.92 0.548154C7.76523 0.484046 7.59935 0.45105 7.43183 0.45105C7.2643 0.45105 7.09842 0.484046 6.94365 0.548154C6.78888 0.612263 6.64825 0.706227 6.52979 0.824684L0.665931 6.68855C0.547345 6.80693 0.453264 6.94754 0.389075 7.10232C0.324885 7.2571 0.291846 7.42302 0.291846 7.59058C0.291846 7.75814 0.324885 7.92406 0.389075 8.07885C0.453264 8.23363 0.547345 8.37423 0.665931 8.49262L6.52979 14.3565C6.64811 14.4751 6.78871 14.5692 6.94351 14.6334C7.09831 14.6975 7.26426 14.7305 7.43183 14.7303Z" fill="white"/>
</svg>
