<svg width="49" height="46" viewBox="0 0 49 46" fill="none" xmlns="http://www.w3.org/2000/svg">
<path d="M13.6667 0.5C6.1998 0.5 0.125004 6.1075 0.125004 13V33C0.125004 39.8925 6.1998 45.5 13.6667 45.5H35.3333C42.8002 45.5 48.875 39.8925 48.875 33V13C48.875 6.1075 42.8002 0.5 35.3333 0.5H13.6667ZM13.6667 5.5H35.3333C39.8129 5.5 43.4584 8.865 43.4584 13V33C43.4584 37.135 39.8129 40.5 35.3333 40.5H13.6667C9.18709 40.5 5.54167 37.135 5.54167 33V13C5.54167 8.865 9.18709 5.5 13.6667 5.5ZM38.0417 8C36.5459 8 35.3333 9.1193 35.3333 10.5C35.3333 11.8807 36.5459 13 38.0417 13C39.5374 13 40.75 11.8807 40.75 10.5C40.75 9.1193 39.5374 8 38.0417 8ZM24.5 10.5C17.0331 10.5 10.9583 16.1075 10.9583 23C10.9583 29.8925 17.0331 35.5 24.5 35.5C31.9669 35.5 38.0417 29.8925 38.0417 23C38.0417 16.1075 31.9669 10.5 24.5 10.5ZM24.5 15.5C28.9796 15.5 32.625 18.865 32.625 23C32.625 27.135 28.9796 30.5 24.5 30.5C20.0204 30.5 16.375 27.135 16.375 23C16.375 18.865 20.0204 15.5 24.5 15.5Z" fill="white"/>
</svg>
